<?xml version="1.0" standalone="no"?>
<!DOCTYPE svg PUBLIC "-//W3C//DTD SVG 20010904//EN"
 "http://www.w3.org/TR/2001/REC-SVG-20010904/DTD/svg10.dtd">
<svg version="1.0" xmlns="http://www.w3.org/2000/svg"
 width="320.000000pt" height="320.000000pt" viewBox="0 0 320.000000 320.000000"
 preserveAspectRatio="xMidYMid meet">
<metadata>
Created by potrace 1.11, written by Peter Selinger 2001-2013
</metadata>
<g transform="translate(0.000000,320.000000) scale(0.100000,-0.100000)"
fill="#000000" stroke="none">
<path d="M2210 3119 c-25 -11 -57 -32 -72 -46 l-27 -26 -76 22 c-164 47 -310
44 -435 -11 -52 -23 -59 -24 -130 -12 -41 6 -93 17 -115 23 -22 6 -70 11 -107
11 -65 0 -99 -5 -198 -30 -121 -30 -149 -32 -179 -9 -22 16 -49 22 -114 26
-83 6 -87 5 -149 -30 -164 -92 -394 -352 -445 -504 l-26 -77 17 -92 c24 -127
60 -199 129 -259 l56 -48 5 -71 c3 -39 8 -184 11 -323 5 -263 14 -374 45 -558
55 -329 145 -559 265 -675 163 -159 212 -202 238 -207 15 -3 36 -16 46 -29 15
-20 28 -24 70 -24 28 0 51 4 51 9 0 5 -12 35 -27 67 -20 43 -27 77 -29 125 -1
64 0 66 22 63 13 -1 24 1 24 6 0 17 51 20 75 4 17 -11 34 -14 53 -10 15 4 39
9 55 11 15 2 39 11 54 20 21 14 27 15 34 4 5 -8 9 -17 9 -21 0 -5 12 -8 26 -8
37 0 23 14 -59 59 -108 60 -211 135 -300 220 -87 83 -185 198 -210 247 -15 30
-47 213 -47 273 l0 31 198 1 c219 0 440 7 460 14 11 4 13 34 10 137 l-3 132
45 18 c57 22 123 22 180 0 l45 -18 5 -134 5 -135 330 -5 330 -5 3 -130 c3
-134 -19 -338 -42 -382 -28 -55 -211 -183 -334 -234 -58 -24 -63 -34 -28 -50
17 -8 29 -8 45 0 16 9 21 9 21 0 0 -8 4 -9 13 0 16 13 27 5 27 -21 0 -19 25
-25 35 -8 5 8 12 7 22 -1 12 -10 19 -7 38 17 l24 29 1 -41 c0 -43 14 -66 36
-57 8 3 14 0 14 -6 0 -22 21 -11 40 21 22 37 25 33 9 -8 -5 -16 -19 -71 -29
-124 -11 -52 -24 -111 -30 -130 -5 -19 -10 -36 -10 -37 0 -2 9 -3 19 -3 11 0
29 12 40 26 l21 27 -6 -47 c-5 -30 -3 -46 4 -46 6 0 13 4 17 10 8 13 35 1 35
-16 0 -42 56 27 139 172 60 103 86 167 144 349 96 297 123 414 137 596 5 68
16 159 25 202 21 107 21 469 0 546 -9 36 -11 59 -4 67 5 6 7 18 3 27 -3 10 4
22 21 33 15 10 58 59 96 110 58 78 73 105 90 171 27 103 23 217 -11 287 -54
112 -275 351 -398 430 -125 81 -275 107 -372 65z m-550 -629 c200 -125 286
-204 405 -375 59 -84 154 -249 155 -267 0 -5 -119 -8 -265 -8 l-265 0 0 -120
c0 -66 -3 -120 -6 -120 -3 0 -31 7 -61 16 -30 9 -67 13 -81 10 -15 -4 -40 -8
-57 -10 -16 -2 -39 -7 -50 -10 -19 -7 -20 -2 -23 106 -2 62 -6 116 -8 120 -3
4 -63 8 -134 8 l-128 0 5 43 c5 44 19 98 33 132 5 11 20 57 35 101 17 53 41
102 70 140 30 41 40 61 32 66 -8 5 -6 8 6 8 11 0 17 8 17 24 0 14 5 28 11 31
6 4 24 26 40 48 54 75 109 127 133 127 12 0 73 -32 136 -70z m-707 -709 c14
-6 28 -20 32 -31 9 -28 36 -60 46 -54 4 2 10 -4 14 -15 5 -18 41 -35 56 -26 4
3 10 22 13 42 4 21 13 50 19 66 l12 27 107 0 108 0 0 -229 0 -228 -77 -5 c-43
-3 -179 -5 -303 -4 l-225 1 -3 94 c-3 85 -1 93 13 81 9 -8 19 -9 24 -4 5 5 14
61 21 124 17 163 15 158 63 163 23 2 45 4 49 5 4 1 18 -2 31 -7z m1325 -103
c33 -115 55 -216 67 -300 l6 -48 -304 0 -305 0 -1 230 -2 230 254 0 254 0 31
-112z"/>
<path d="M1054 1566 c-7 -19 3 -36 22 -36 10 0 14 8 12 22 -4 26 -26 36 -34
14z"/>
<path d="M1964 1585 c-4 -9 -2 -21 4 -27 15 -15 44 -1 40 19 -4 23 -36 29 -44
8z"/>
<path d="M1293 855 c26 -24 73 -54 105 -66 70 -28 194 -36 290 -19 70 12 202
66 202 83 0 5 -8 6 -17 2 -84 -32 -201 -57 -288 -62 -123 -7 -185 9 -268 67
-75 52 -84 50 -24 -5z"/>
</g>
</svg>
